<?xml version="1.0" standalone="no"?>
<!DOCTYPE svg PUBLIC "-//W3C//DTD SVG 20010904//EN"
 "http://www.w3.org/TR/2001/REC-SVG-20010904/DTD/svg10.dtd">
<svg version="1.0" xmlns="http://www.w3.org/2000/svg"
 width="256.000000pt" height="231.000000pt" viewBox="0 0 256.000000 231.000000"
 preserveAspectRatio="xMidYMid meet">

<g transform="translate(0.000000,231.000000) scale(0.100000,-0.100000)"
fill="#000000" stroke="none">
<path d="M620 1160 l0 -820 716 0 715 0 -3 548 -3 547 -26 77 c-39 113 -94
204 -169 278 -78 76 -149 121 -252 158 l-73 27 -452 3 -453 3 0 -821z m892
610 c132 -41 234 -129 294 -255 30 -63 60 -187 49 -205 -4 -6 -184 -124 -523
-341 l-87 -56 -3 -192 -2 -191 -215 0 -215 0 0 630 0 630 319 0 c290 0 325 -2
383 -20z"/>
</g>
</svg>
